<?xml version="1.0" standalone="no"?>
<!DOCTYPE svg PUBLIC "-//W3C//DTD SVG 20010904//EN"
 "http://www.w3.org/TR/2001/REC-SVG-20010904/DTD/svg10.dtd">
<svg version="1.0" xmlns="http://www.w3.org/2000/svg"
 width="518.000000pt" height="518.000000pt" viewBox="0 0 518.000000 518.000000"
 preserveAspectRatio="xMidYMid meet">

<g transform="translate(0.000000,518.000000) scale(0.100000,-0.100000)"
fill="#000000" stroke="none">
<path d="M2317 4325 c-740 -120 -1302 -667 -1454 -1413 -26 -125 -26 -519 0
-644 146 -719 664 -1245 1377 -1400 93 -20 132 -22 350 -22 218 0 257 2 350
22 713 155 1231 681 1377 1400 26 125 26 519 0 644 -145 716 -665 1246 -1372
1398 -131 29 -492 37 -628 15z m478 -439 c201 -64 359 -213 436 -411 24 -62
31 -70 56 -73 50 -5 127 -34 178 -67 103 -66 179 -185 191 -300 l6 -60 -47
-17 c-231 -86 -415 -361 -415 -622 0 -254 150 -496 376 -608 80 -40 84 -43 84
-75 0 -47 -36 -148 -70 -197 -63 -92 -150 -153 -257 -181 -86 -23 -1401 -22
-1488 0 -127 34 -230 120 -288 242 l-32 68 0 750 0 750 31 65 c45 94 111 162
198 205 40 20 94 39 120 43 l48 7 27 70 c73 188 221 334 407 402 94 34 156 43
264 38 65 -3 121 -12 175 -29z"/>
<path d="M1952 2788 l3 -203 270 -92 c149 -50 275 -94 280 -96 6 -2 -117 -46
-272 -98 l-283 -94 0 -202 c0 -112 2 -203 5 -203 4 0 1026 588 1032 594 3 3
-1024 596 -1032 596 -3 0 -4 -91 -3 -202z"/>
</g>
</svg>
